<svg width="24" height="16" viewBox="0 0 24 16" fill="none" xmlns="http://www.w3.org/2000/svg">
<path d="M12 7.46154C12.3197 7.46154 12.5789 7.22046 12.5789 6.92308C12.5789 6.62569 12.3197 6.38462 12 6.38462C11.6803 6.38462 11.4211 6.62569 11.4211 6.92308C11.4211 7.22046 11.6803 7.46154 12 7.46154Z" stroke="white" stroke-opacity="0.4" stroke-linecap="round" stroke-linejoin="round"/>
<path d="M12 12.8462C14.8777 12.8462 17.2105 10.6765 17.2105 8C17.2105 5.32354 14.8777 3.15385 12 3.15385C9.12231 3.15385 6.78947 5.32354 6.78947 8C6.78947 10.6765 9.12231 12.8462 12 12.8462Z" stroke="white" stroke-opacity="0.4" stroke-linecap="round" stroke-linejoin="round"/>
<path d="M1 8C1 8 4.92857 1 12 1C19.0714 1 23 8 23 8C23 8 19.0714 15 12 15C4.92857 15 1 8 1 8Z" stroke="white" stroke-opacity="0.4" stroke-linecap="round" stroke-linejoin="round"/>
</svg>
